<svg xmlns="http://www.w3.org/2000/svg" width="1200" height="643.49"><ellipse cx="926.07" cy="264.42" rx="235.82" ry="250.54" fill="#fff" stroke="#231f20" stroke-linecap="round" stroke-linejoin="round" stroke-width="12"/><path d="M359.59 21.69c-192.49 0-348.53 120.48-348.53 269.1 0 59.5 25.02 114.49 67.37 159.05-14.3 55.47-62.72 120.23-62.72 120.23s80-49.48 146.02-57.73c56.21 29.98 124.38 47.54 197.87 47.54 192.49 0 348.53-120.48 348.53-269.09S552.08 21.69 359.59 21.69z" fill="#fff" stroke="#231f20" stroke-linecap="round" stroke-linejoin="round" stroke-width="12"/><path d="M140.07 262.32c-1.34-.86-2.42-1.96-3.23-3.31-.81-1.34-1.48-2.78-2.01-4.31-.53-1.53-.96-3.14-1.29-4.81-.33-1.67-.69-3.28-1.08-4.81 0-1.34.29-2.32.86-2.95.57-.62 1.2-1.22 1.87-1.8 2.3-.09 4.36-.29 6.18-.57 1.82-.29 3.59-.57 5.32-.86 1.72-.29 3.45-.55 5.17-.79 1.72-.24 3.59-.36 5.6-.36 1.44-2.97 2.78-5.82 4.02-8.55 1.24-2.73 2.44-5.34 3.59-7.83.57-2.39 1.32-4.62 2.23-6.68.91-2.06 1.8-4.02 2.66-5.89a71.07 71.07 0 0 0 2.3-5.6c.67-1.87 1.1-3.86 1.29-5.96 1.15-3.35 2.18-6.44 3.09-9.27.91-2.82 1.6-6.2 2.08-10.13-3.64.57-6.56 1.13-8.77 1.65-2.21.53-3.79 1.03-4.74 1.51-1.92-.09-3.43-.48-4.53-1.15-1.1-.67-1.99-1.48-2.66-2.44-.67-.96-1.25-2.06-1.72-3.31-.48-1.24-1.06-2.54-1.72-3.88.38-.86.48-2.13.29-3.81-.19-1.67-.77-2.9-1.72-3.66.77-.19 1.34-.84 1.72-1.94.38-1.1.43-1.94.14-2.51 1.63-.48 3.35-.79 5.17-.93 1.82-.14 3.62-.29 5.39-.43 1.77-.14 3.47-.33 5.1-.57 1.63-.24 3.02-.74 4.17-1.51 4.98-.19 10.18-.38 15.59-.57 5.41-.19 10.42-.43 15.02-.72 1.72.57 3.71.86 5.96.86s4.5.14 6.75.43 4.26.91 6.04 1.87c1.77.96 2.99 2.64 3.66 5.03 1.44.19 2.51.57 3.23 1.15s1.17 1.27 1.37 2.08c.19.82.26 1.72.22 2.73-.05 1.01-.07 1.99-.07 2.95-1.53 1.15-3.47 2.08-5.82 2.8-2.35.72-4.91 1.29-7.69 1.72-2.78.43-5.68.72-8.69.86-3.02.14-5.96.26-8.84.36-.48 3.16-1.32 6.88-2.51 11.14-1.2 4.26-2.42 8.43-3.66 12.5-1.25 4.07-2.32 7.71-3.23 10.92-.91 3.21-1.32 5.29-1.22 6.25-.96 2.2-1.75 4.07-2.37 5.6-.62 1.53-1.2 2.97-1.72 4.31-.53 1.34-1.05 2.66-1.58 3.95s-1.17 2.75-1.94 4.38h9.77c.19 1.06.62 1.77 1.29 2.16.67.38 1.39.72 2.16 1.01a9.5 9.5 0 0 1 2.08 1.08c.62.43.93 1.13.93 2.08 1.82.48 2.97 1.2 3.45 2.16.48.96.6 1.99.36 3.09-.24 1.1-.72 2.23-1.44 3.38s-1.41 2.16-2.08 3.02c-.86-.19-1.68.02-2.44.65-.77.62-1.49 1.32-2.16 2.08-2.78-.38-5.51-.43-8.19-.14-2.68.29-5.17.53-7.47.72-.48.1-.67.36-.57.79.09.43 0 .74-.29.93a24.53 24.53 0 0 0-9.12-1.15c-3.11.19-6.28.65-9.48 1.37-3.21.72-6.49 1.49-9.84 2.3-3.35.81-6.75 1.27-10.2 1.37zm165.83-3.3c-2.68.86-5.6 1.72-8.77 2.59-3.16.86-6.32 1.29-9.48 1.29-4.79 0-8.58-1.2-11.35-3.59-.48-1.05-.91-1.77-1.29-2.16-.29-.38-.55-.79-.79-1.22-.24-.43-.41-1.03-.5-1.8-1.15-1.34-2.06-2.9-2.73-4.67-.67-1.77-1.13-3.59-1.37-5.46-.24-1.87-.29-3.76-.14-5.68.14-1.92.45-3.74.93-5.46.19-.38.31-.77.36-1.15.05-.38.12-.81.22-1.29.38-1.53.79-3.02 1.22-4.45s1.03-2.68 1.8-3.74c-.38-.86-.38-1.82 0-2.87s.81-2.01 1.29-2.87c1.34-3.64 2.47-6.73 3.38-9.27.91-2.54 1.84-5.05 2.8-7.54 1.63-4.31 3.16-8.57 4.6-12.79 1.44-4.21 2.73-8.77 3.88-13.65.77-.48 1.34-.81 1.72-1.01.57-.19 1.05-.33 1.44-.43 1.72.86 3.74 1.7 6.04 2.52 2.3.82 4.21 1.22 5.75 1.22.77.48 1.24.84 1.44 1.08.19.24.38.46.57.65 1.05 1.25 1.96 2.51 2.73 3.81.77 1.29 1.01 3 .72 5.1-.57.86-1.01 1.29-1.29 1.29-.48 1.92-.98 3.55-1.51 4.89-.53 1.34-1.08 2.68-1.65 4.02-.67 1.44-1.29 2.87-1.87 4.31s-1.06 3.21-1.44 5.32c-.38.48-.65.91-.79 1.29s-.31.82-.5 1.29c-.19.48-.41.98-.65 1.51-.24.53-.6.98-1.08 1.36-.29 2.49-.74 4.5-1.37 6.04-.62 1.53-1.27 3.07-1.94 4.6-1.15 2.78-2.18 5.56-3.09 8.33-.91 2.78-1.46 5.94-1.65 9.48.48-.19.93-.29 1.37-.29h1.22c.86 0 1.87.14 3.02.43 2.87-1.53 6.01-2.44 9.41-2.73 3.4-.29 6.78-.48 10.13-.57h4.02c1.34 0 2.59-.09 3.74-.29.86.48 1.41.74 1.65.79.24.05.6.07 1.08.07.67 0 1.24.05 1.72.14 1.15 1.06 2.25 1.82 3.31 2.3 1.05.48 2.16.91 3.31 1.29 1.05.38 2.08.79 3.09 1.22 1.01.43 1.99 1.03 2.95 1.8l1.01 6.18c.67.86.96 1.44.86 1.72 0 .77-.19 1.34-.57 1.72l.29 1.58c-1.44.29-2.42.62-2.95 1.01-.53.38-1.03.81-1.51 1.29-.77.1-1.32.14-1.65.14h-.93c-1.34 0-2.97.24-4.89.72-2.59-.86-5.27-1.29-8.05-1.29-1.06 0-2.16.05-3.31.14-1.15.1-2.3.19-3.45.29-1.15.19-2.32.34-3.52.43-1.2.1-2.42.14-3.66.14l-3.31.86zm124.3-41.53c-.1 1.15 0 2.25.29 3.31s.65 2.08 1.08 3.09c.43 1.01.84 2.04 1.22 3.09.38 1.06.67 2.11.86 3.16.19 1.34.19 2.8 0 4.38s-.53 3.11-1.01 4.6c-.48 1.49-1.1 2.83-1.87 4.02-.77 1.2-1.68 2.08-2.73 2.66-1.34 1.72-2.97 3.07-4.89 4.02-1.92.96-3.69 2.11-5.32 3.45-1.05.67-2.23 1.15-3.52 1.44-1.29.29-2.61.57-3.95.86-1.06.57-2.3 1.17-3.74 1.8-1.44.62-2.92 1.2-4.45 1.72-1.53.53-3.07.91-4.6 1.15-1.53.24-2.87.31-4.02.22-2.87 1.05-5.68 1.75-8.41 2.08-2.73.33-5.92.12-9.56-.65-3.45.48-6.63.33-9.56-.43-2.92-.77-5.51-1.99-7.76-3.66a26.822 26.822 0 0 1-5.89-6.04 36.342 36.342 0 0 1-4.1-7.4c-.77-5.46-.57-10.42.57-14.87 1.15-4.45 2.8-8.57 4.96-12.36 2.16-3.78 4.62-7.28 7.4-10.49 2.78-3.21 5.46-6.34 8.05-9.41.57.19 1.03.17 1.37-.07.33-.24.65-.57.93-1.01.29-.43.6-.84.93-1.22.33-.38.74-.62 1.22-.72.67-1.44 1.65-2.51 2.95-3.23s2.32-1.75 3.09-3.09c.86-.19 1.58-.48 2.16-.86.57-.38 1.13-.81 1.65-1.29.53-.48 1.08-.93 1.65-1.36s1.24-.74 2.01-.93v-1.58c1.72-.77 2.99-1.65 3.81-2.66.81-1.01 1.8-2.23 2.95-3.66.86-.09 1.56-.14 2.08-.14s1.32-.09 2.37-.29c.77-1.34 1.46-2.35 2.08-3.02.62-.67 1.56-1.39 2.8-2.16 1.15.57 2.42.96 3.81 1.15 1.39.19 2.61.82 3.66 1.87.09.96.38 1.7.86 2.23s1.01 1.01 1.58 1.44c.57.43 1.13.89 1.65 1.37.53.48.88 1.15 1.08 2.01.38.1.65.05.79-.14s.41-.24.79-.14c.29 1.34.62 2.23 1.01 2.66.38.43.77 1.27 1.15 2.51-.48.96-.84 1.94-1.08 2.95-.24 1.01-.84 1.75-1.8 2.23-.1.67.09 1.03.57 1.08.48.05.77.31.86.79.09.86-.05 1.49-.43 1.87 2.3 3.74 4.36 7.69 6.18 11.85 1.82 4.17 3.88 8.12 6.18 11.85zm-17.96 13.65c.38-1.05.88-1.92 1.51-2.59.62-.67.98-1.67 1.08-3.02-.48-.77-.77-1.36-.86-1.8-.1-.43-.14-1.13-.14-2.08a56.102 56.102 0 0 1-5.46-9.56c-1.53-3.4-3.26-6.59-5.17-9.56-.19.38-.53.77-1.01 1.15-.48.38-1.01.29-1.58-.29-.19.77-.53 1.32-1.01 1.65-.48.34-1.01.48-1.58.43-.57-.05-1.17-.19-1.8-.43-.62-.24-1.17-.55-1.65-.93-2.78 2.21-5.56 4.36-8.33 6.47a41.445 41.445 0 0 0-7.47 7.33c-.38.19-.62.26-.72.22-.1-.05-.38.02-.86.22a24.13 24.13 0 0 1-2.8 4.96c-1.1 1.49-2.18 3-3.23 4.53a29.877 29.877 0 0 0-2.73 4.89c-.77 1.72-1.2 3.74-1.29 6.04 1.63 1.34 3.54 2.16 5.75 2.44 2.2.29 4.48.34 6.83.14 2.35-.19 4.65-.5 6.9-.93 2.25-.43 4.33-.65 6.25-.65 4.02-.96 7.47-2.23 10.35-3.81 2.87-1.58 5.89-3.18 9.05-4.81zm70.12 4.17c-.1 1.34-.41 2.61-.93 3.81-.53 1.2-1.17 2.35-1.94 3.45s-1.61 2.16-2.52 3.16c-.91 1.01-1.8 1.89-2.66 2.66.29 1.25.31 2.18.07 2.8-.24.62-.31 1.56-.22 2.8-1.44 3.83-3.62 6.39-6.54 7.69-2.92 1.29-5.68 1.03-8.26-.79a9.963 9.963 0 0 1-2.66-2.95c-.72-1.2-1.7-1.94-2.95-2.23.29-1.63.14-3.26-.43-4.89-.57-1.63-1.2-2.49-1.87-2.59-.29-2.01-.72-4.17-1.29-6.47-.57-2.3-1.1-4.62-1.58-6.97-.48-2.35-.89-4.65-1.22-6.9-.34-2.25-.46-4.33-.36-6.25.09-.96-.07-1.82-.5-2.59-.43-.77-.74-1.68-.93-2.73-.38-2.2-.5-4.53-.36-6.97.14-2.44.22-4.76.22-6.97s-.12-4.38-.36-6.83c-.24-2.44-.46-4.79-.65-7.04s-.29-4.31-.29-6.18.24-3.33.72-4.38a7.424 7.424 0 0 1 2.37-2.8c1.01-.72 1.94-1.51 2.8-2.37 2.11.19 3.78 1.06 5.03 2.59 1.24 1.53 1.72 2.97 1.44 4.31 2.01 1.25 3.62 2.85 4.81 4.81 1.2 1.96 2.16 4.17 2.87 6.61s1.22 5.03 1.51 7.76c.29 2.73.53 5.41.72 8.05.19 2.64.38 5.15.57 7.54.19 2.4.57 4.45 1.15 6.18 3.54-5.08 6.51-9.6 8.91-13.58 2.39-3.97 4.84-7.78 7.33-11.42 2.49-3.64 5.27-7.33 8.33-11.06 3.06-3.74 7.04-7.95 11.93-12.65.96.1 1.75.29 2.37.57.62.29 1.17.53 1.65.72.48.19 1.05.36 1.72.5.67.14 1.58.12 2.73-.07.38.96.67 1.65.86 2.08.19.43.36.86.5 1.29.14.43.33.98.57 1.65.24.67.65 1.63 1.22 2.87.29.29.38.67.29 1.15-.1.48-.17.93-.22 1.36-.05.43-.07.74-.07.93s.24.19.72 0c-.29 1.34-.79 2.56-1.51 3.66s-1.03 2.42-.93 3.95c-2.2 2.87-4.62 5.84-7.26 8.91-2.64 3.07-5.27 6.23-7.9 9.48-2.64 3.26-5.15 6.68-7.54 10.27-2.4 3.59-4.45 7.35-6.18 11.28-.48 0-.84.14-1.08.43-.24.29-.46.6-.65.93-.19.34-.41.65-.65.93-.24.29-.55.43-.93.43zm107.43-55.61c.09.67.12 1.17.07 1.51-.05.34-.1.65-.14.93-.05.29-.07.6-.07.93s.09.84.29 1.51c-2.01 3.26-4.34 5.49-6.97 6.68-2.64 1.2-5.49 2.06-8.55 2.59-3.07.53-6.2 1.08-9.41 1.65-3.21.57-6.39 1.82-9.56 3.74-1.25-.48-2.37-.48-3.38 0-1.01.48-2.47.62-4.38.43-.57.57-1.29.98-2.16 1.22-.86.24-1.72.5-2.59.79.38.86.55 1.75.5 2.66-.05.91.07 1.65.36 2.23 3.35.29 7.06.24 11.14-.14 4.07-.38 8.07-.62 12-.72.09.48.05.79-.14.93s-.24.41-.14.79c.67.48 1.34 1.08 2.01 1.8.67.72 1.34 1.41 2.01 2.08.67.67 1.36 1.22 2.08 1.65.72.43 1.56.6 2.52.5.38.77.65 1.61.79 2.51.14.91.02 1.85-.36 2.8-1.53 1.06-3.07 2.13-4.6 3.23-1.53 1.1-3.14 2.08-4.81 2.95a28.26 28.26 0 0 1-5.32 2.08c-1.87.53-3.95.74-6.25.65h-1.08c-.24 0-.55-.14-.93-.43-.77.48-1.85.62-3.23.43-1.39-.19-2.47-.05-3.23.43-1.06-.48-2.32-.69-3.81-.65-1.49.05-2.8-.12-3.95-.5a50.393 50.393 0 0 0-4.17 6.47c-1.25 2.3-2.35 4.74-3.31 7.33 3.26.48 5.96.67 8.12.57 2.16-.09 4.19-.26 6.11-.5s3.88-.48 5.89-.72 4.55-.31 7.62-.22c1.92-1.05 4.19-1.75 6.83-2.08 2.63-.33 5.05-.88 7.26-1.65.77.29 1.44.79 2.01 1.51s1.13 1.39 1.65 2.01c.53.62 1.08 1.17 1.65 1.65.57.48 1.29.67 2.16.57.38.38.65.84.79 1.36.14.53.26 1.03.36 1.51.09.48.26.89.5 1.22.24.34.65.46 1.22.36-1.44 3.16-3.09 5.58-4.96 7.26-1.87 1.68-4 2.95-6.39 3.81-2.4.86-5.05 1.53-7.98 2.01-2.92.48-6.16 1.06-9.7 1.72-.86.19-1.58.17-2.16-.07-.57-.24-1.25-.36-2.01-.36-2.21.48-4.84.91-7.9 1.29-3.07.38-6.18.53-9.34.43-3.16-.1-6.18-.5-9.05-1.22-2.87-.72-5.22-1.99-7.04-3.81-.77-.67-1.27-1.46-1.51-2.37-.24-.91-.89-1.6-1.94-2.08-.1-1.24-.29-2.63-.57-4.17-.29-1.53-.57-3.14-.86-4.81-.29-1.68-.5-3.33-.65-4.96-.14-1.63-.07-3.11.22-4.45.29-1.44.88-2.73 1.8-3.88.91-1.15 1.22-2.39.93-3.74.48-.09.77-.36.86-.79.09-.43.48-.6 1.15-.5.57-1.72 1.2-3.35 1.87-4.89.67-1.53 1.36-3.02 2.08-4.45.72-1.44 1.44-2.9 2.16-4.38.72-1.48 1.41-3.14 2.08-4.96-1.34-1.24-2.32-2.61-2.95-4.1-.62-1.48-1.08-2.97-1.36-4.45-.29-1.48-.53-3.02-.72-4.6a29.48 29.48 0 0 0-1.01-4.81c.96-1.44 2.13-2.61 3.52-3.52 1.39-.91 2.9-1.65 4.53-2.23 1.63-.57 3.4-1.05 5.32-1.44 1.92-.38 3.93-.81 6.04-1.29 3.83-1.24 7.26-2.2 10.27-2.87 3.02-.67 5.99-1.22 8.91-1.65 2.92-.43 5.96-.84 9.13-1.22 3.16-.38 6.75-.96 10.78-1.72.86.86 1.67 1.29 2.44 1.29.38-.86.84-1.12 1.36-.79.53.34.74.07.65-.79.96 1.63 2.18 3 3.66 4.1 1.48 1.1 3.14 2.04 4.96 2.8zM165.87 384.5c-.96.48-1.85.91-2.66 1.29-.82.38-1.75.57-2.8.57-3.74-2.78-5.68-7.62-5.82-14.51-.14-6.9 1.32-15.66 4.38-26.3.48-.29.72-.86.72-1.72l-1.29-1.44c-.38 0-.74.05-1.08.14-.34.1-.6.43-.79 1.01a220.07 220.07 0 0 1-8.19 5.68c-2.97 1.96-6.06 3.79-9.27 5.46a61.803 61.803 0 0 1-9.77 4.1c-3.31 1.06-6.54 1.58-9.7 1.58-8.05 0-14.08-4.07-18.11-12.21l-1.15-2.16-1.15 1.87c-.29.38-.72 1.17-1.29 2.37-.57 1.2-1.15 2.56-1.72 4.1-.57 1.53-1.08 3.09-1.51 4.67-.43 1.58-.6 2.95-.5 4.1-.86.86-1.77 1.87-2.73 3.02s-1.68 2.44-2.16 3.88c-.19.77-.1 1.49.29 2.16-.19.86-.62 1.53-1.29 2.01-.38.48-.79.93-1.22 1.36-.43.43-.79.89-1.08 1.37-.19.48-.31.96-.36 1.44-.05.48-.12.96-.22 1.44 0 .67-.1 1.29-.29 1.87-1.63 3.35-2.92 5.53-3.88 6.54-.96 1.01-2.25 1.51-3.88 1.51-.77 0-2.01-.14-3.74-.43-1.25-1.34-2.37-3.18-3.38-5.53-1.01-2.35-1.77-4.86-2.3-7.54a38.16 38.16 0 0 1-.72-8.12c.05-2.73.5-5.1 1.36-7.11 0-.09.38-1.05 1.15-2.87.77-1.82 1.75-4.17 2.95-7.04 1.2-2.87 2.56-6.06 4.1-9.56 1.53-3.5 3.06-6.9 4.6-10.2 1.53-3.31 2.99-6.35 4.38-9.13 1.39-2.78 2.56-4.89 3.52-6.32.77-1.15 1.46-2.23 2.08-3.23.62-1.01 1.22-1.99 1.8-2.95 1.72-2.97 3.38-5.44 4.96-7.4s3.9-3.52 6.97-4.67c2.11.86 3.64 1.87 4.6 3.02l.29 1.58c.38.96.96 1.44 1.72 1.44 1.05.29 1.94.55 2.66.79.72.24 1.51.46 2.37.65.67.77 1.29 1.68 1.87 2.73.77 1.15 1.51 2.28 2.23 3.38s1.29 2.21 1.72 3.31c.43 1.1.67 2.23.72 3.38.05 1.15-.17 2.35-.65 3.59l.14 1.44c.48.86.57 2.06.29 3.59-.1.67-.14 1.36-.14 2.08s.09 1.51.29 2.37c1.72 1.34 3.26 2.01 4.6 2.01 1.53 0 2.95-.36 4.24-1.08s2.51-1.46 3.66-2.23c.77-.57 1.53-1.08 2.3-1.51.77-.43 1.53-.69 2.3-.79 1.72-1.63 3.28-3.06 4.67-4.31 1.39-1.24 2.85-2.49 4.38-3.74 2.87-2.3 5.65-4.79 8.33-7.47s4.84-6.04 6.47-10.06c.96-.57 1.96-.86 3.02-.86s2.16.24 3.31.72 2.25.96 3.31 1.44c.29.19.55.34.79.43.24.1.45.19.65.29 0 .96.38 1.77 1.15 2.44.38.29.62.48.72.57.09.1.24.19.43.29 1.44.77 2.35 1.53 2.73 2.3.67 2.21 1.87 3.88 3.59 5.03-.19.96-.17 1.85.07 2.66.24.82.55 1.65.93 2.51.09.29.19.57.29.86.09.29.24.62.43 1.01l-2.73-.29.43 2.73c.19 1.34.07 2.83-.36 4.45-.43 1.63-.93 2.92-1.51 3.88.09 2.49.17 4.43.22 5.82.05 1.39-.02 2.68-.22 3.88-.19 1.2-.46 2.32-.79 3.38-.34 1.06-.79 2.21-1.36 3.45.38 6.13-.31 11.71-2.08 16.74-1.77 5.03-3.62 9.75-5.53 14.15-.19.48-.41.96-.65 1.44-.24.48-.46.96-.65 1.44-.86.29-1.63.6-2.3.93-.67.34-1.39.7-2.16 1.08zm66.39-35.06c-.67.57-1.25 1.27-1.72 2.08-.48.82-.96 1.65-1.44 2.51-.48 1.06-1.01 2.06-1.58 3.02-.57.96-1.29 1.82-2.16 2.59-.48 1.44-.96 2.56-1.44 3.38-.48.82-1.25 1.75-2.3 2.8-.96 3.83-3.21 8-6.75 12.5-.1.86-.36 1.7-.79 2.51-.43.82-.89 1.61-1.36 2.37-.19.29-.38.6-.57.93-.19.34-.34.6-.43.79l-.29 1.44c-.48.77-1.01 1.44-1.58 2.01l-1.58 1.58c-.19.29-.53.67-1.01 1.15l-2.16.86c-6.99-.96-11.26-4.69-12.79-11.21l.14-1.44c.19-.48.36-.98.5-1.51s.31-1.08.5-1.65c.38-1.34.84-2.68 1.36-4.02a10.5 10.5 0 0 1 2.37-3.59c.19-.67.62-1.75 1.29-3.23s1.82-3.71 3.45-6.68c1.34-2.3 2.39-4.12 3.16-5.46.77-1.34 1.39-2.39 1.87-3.16-.96-1.53-2.11-2.92-3.45-4.17a83.5 83.5 0 0 1-3.23-6.9c-.91-2.2-1.61-4.17-2.08-5.89-.1-1.24-.24-2.3-.43-3.16-.19-.86-.38-1.77-.57-2.73-.29-1.05-.53-2.11-.72-3.16-.19-1.05-.29-2.16-.29-3.31-.48-.67-.77-1.34-.86-2.01l.29-1.44c.29-.67.33-1.56.14-2.66s-.43-2.23-.72-3.38c-.19-.96-.41-2.01-.65-3.16-.24-1.15-.31-2.3-.22-3.45.09-1.15.41-2.23.93-3.23.53-1.01 1.41-1.89 2.66-2.66l2.44-.14c.86.48 1.7.93 2.51 1.36.81.43 1.6.89 2.37 1.37 1.05.48 2.06.96 3.02 1.44s1.96 1.1 3.02 1.87l1.01 2.01 1.87 1.58v1.58c.09.38.14.91.14 1.58 0 1.25.19 2.01.57 2.3l.57 1.72c0 1.34.14 2.61.43 3.81.29 1.2.57 2.32.86 3.38.29 1.06.57 2.16.86 3.31.29 1.15.33 2.4.14 3.74.57-.29 1.05-.62 1.44-1.01.19-.19.38-.33.57-.43.19-.09.38-.24.57-.43l8.48-11.5-.29-1.44 3.02-2.87c.77-.77 1.51-1.48 2.23-2.16.72-.67 1.32-1.39 1.8-2.16l1.58-1.15c3.06-4.79 7.42-7.76 13.08-8.91l2.01-.29.57 1.87c.38 1.06 1.17 2.01 2.37 2.87 1.2.86 2.47 1.68 3.81 2.44l1.29.86c.48.96.72 1.68.72 2.16s-.05.91-.14 1.29l.57 1.44c-.77 2.3-1.7 3.98-2.8 5.03-1.1 1.06-2.18 2.01-3.23 2.87-.86.77-1.65 1.46-2.37 2.08-.72.62-1.27 1.41-1.65 2.37l-1.01 1.15c-2.01 1.15-3.31 2.68-3.88 4.6l-.43 1.72h-1.72c-.1 0-.31.17-.65.5s-.84 1.17-1.51 2.52c-.67.96-1.15 1.58-1.44 1.87l-.72.72c-.1.38-.22.74-.36 1.08-.14.34-.31.74-.5 1.22-1.25 1.25-2.01 2.18-2.3 2.8-.29.62-.62 1.32-1.01 2.08-.38.77-.74 1.51-1.08 2.23-.34.72-.89 1.46-1.65 2.23l-.72 2.16zm155.61 11.78c-2.3 4.12-5.32 7.31-9.05 9.56-3.74 2.25-7.86 4.12-12.36 5.6-4.5 1.49-9.22 2.8-14.15 3.95-4.93 1.15-9.7 2.64-14.3 4.45-1.34 0-2.51.05-3.52.14-1.01.1-1.96.22-2.87.36-.91.14-1.8.29-2.66.43-.86.14-1.82.27-2.87.36-.38-.09-.62-.02-.72.22-.1.24-.24.46-.43.65-1.63.29-3.09.43-4.38.43h-3.23c-1.15 0-2.32.17-3.52.5-1.2.33-2.28.45-3.23.36-7.19-.38-12.81-2.95-16.88-7.69-4.07-4.74-6.35-11.33-6.83-19.76.09-.48.02-.77-.22-.86-.24-.09-.46-.24-.65-.43 0-.96.12-1.77.36-2.44.24-.67.26-1.53.07-2.59 2.49-5.27 5.32-10.18 8.48-14.73 3.16-4.55 6.94-8.55 11.35-12 .67-.57 1.24-1.15 1.72-1.72.48-.57.93-1.15 1.37-1.72.43-.57.93-1.08 1.51-1.51.57-.43 1.29-.74 2.16-.93 2.01-2.3 4.41-4.41 7.18-6.32 2.78-1.92 5.7-3.76 8.77-5.53 3.06-1.77 6.11-3.54 9.12-5.32 3.02-1.77 5.77-3.76 8.26-5.96 1.05.48 1.82.62 2.3.43.48-.19 1.01-.19 1.58 0 .67 1.44 1.6 2.44 2.8 3.02 1.2.57 2.39 1.17 3.59 1.8 1.2.62 2.32 1.37 3.38 2.23 1.05.86 1.87 2.01 2.44 3.45-.57 0-.84.22-.79.65.05.43.17.86.36 1.29.19.43.26.86.22 1.29-.05.43-.41.65-1.08.65.09.48.41.74.93.79.53.05.79.31.79.79s-.12.86-.36 1.15c-.24.29-.27.77-.07 1.44-1.92 1.25-4.05 2.44-6.39 3.59-2.35 1.15-4.79 2.37-7.33 3.66s-5.17 2.68-7.9 4.17a69.718 69.718 0 0 0-7.98 5.1c-2.59 1.92-5.22 4.05-7.9 6.4-2.68 2.35-5.27 4.81-7.76 7.4-2.49 2.59-4.84 5.25-7.04 7.98-2.2 2.73-4.07 5.44-5.6 8.12.19.48.41.84.65 1.08.24.24.45.6.65 1.08 3.06.19 5.91.17 8.55-.07 2.63-.24 5.29-.07 7.98.5.29-.19.48-.48.57-.86.09-.38.33-.67.72-.86 5.46-.57 10.54-1.46 15.23-2.66 4.69-1.2 9.48-2.47 14.37-3.81-.77-.29-1.46-.55-2.08-.79-.62-.24-1.22-.45-1.8-.65-.48-.48-.46-.88.07-1.22.53-.33.98-.69 1.36-1.08-1.34-.77-2.42-1.72-3.23-2.87-.82-1.15-1.32-2.68-1.51-4.6.57-.48.86-1.05.86-1.72s-.29-1.2-.86-1.58c-.38-.09-.62-.09-.72 0s-.17.24-.22.43c-.05.19-.12.36-.22.5s-.34.12-.72-.07c.09-.86.31-1.58.65-2.16.33-.57.6-1.24.79-2.01l9.92-6.61c1.05.77 2.35 1.61 3.88 2.52 1.53.91 3.14 1.82 4.81 2.73 1.67.91 3.4 1.82 5.17 2.73 1.77.91 3.42 1.8 4.96 2.66 1.34.57 2.54 1.34 3.59 2.3 1.05.96 2.06 1.94 3.02 2.95.96 1.01 1.94 1.99 2.95 2.95 1.01.96 2.18 1.77 3.52 2.44-.19 1.25-.14 2.25.14 3.02.29.77.38 1.72.29 2.87zm78.89-55.9c.19 2.11.53 3.93 1.01 5.46.48 1.53 1.01 3.02 1.58 4.45.48 1.34.93 2.66 1.37 3.95s.74 2.85.93 4.67c-.77 2.49-1.32 4.79-1.65 6.9-.34 2.11-.7 4.31-1.08 6.61-1.53 3.35-3.02 6.32-4.45 8.91s-2.59 4.84-3.45 6.75c-.48.48-.89 1.03-1.22 1.65-.34.62-.7 1.27-1.08 1.94-.19.29-.43.72-.72 1.29-.29.57-.53.96-.72 1.15l-2.87-1.01-.57 3.59-2.01.57-1.44 1.72c-1.82 3.16-3.74 5.82-5.75 7.98s-4.29 4.07-6.83 5.75c-2.54 1.68-5.41 3.23-8.62 4.67-3.21 1.44-6.83 3.02-10.85 4.74-1.63-.19-3.04-.31-4.24-.36-1.2-.05-2.32-.12-3.38-.22-1.82 0-4.07-.14-6.75-.43-.29-.77-.72-1.29-1.29-1.58-.57-.29-1.1-.43-1.58-.43-1.63-.77-2.85-1.89-3.66-3.38-.82-1.48-1.61-3.09-2.37-4.81-.48-1.05-.96-2.03-1.44-2.95-.48-.91-1.01-1.84-1.58-2.8l2.44-.72-3.16-3.45c-.19-.29-.43-.55-.72-.79s-.53-.5-.72-.79l-.14-2.3c-.29-6.61-.41-12.67-.36-18.18.05-5.51.79-10.42 2.23-14.73v-1.58c.29-2.11.57-3.86.86-5.25.29-1.39.53-2.71.72-3.95.29-2.11.72-4.07 1.29-5.89 1.34-.29 2.35-.84 3.02-1.65.67-.81 1.24-1.56 1.72-2.23 1.34-.09 2.25.1 2.73.57.48.48.96 1.25 1.44 2.3.48.86 1.08 1.82 1.8 2.87s1.8 1.87 3.23 2.44c.19.77.45 1.56.79 2.37.33.82.69 1.7 1.08 2.66.77 1.63 1.46 3.33 2.08 5.1.62 1.77.98 3.47 1.08 5.1-.96 1.82-1.7 3.93-2.23 6.32-.53 2.4-.86 4.81-1.01 7.26s-.1 4.79.14 7.04c.24 2.25.65 4.14 1.22 5.68l.86 1.87 2.44-.29c2.87-.77 5.48-1.6 7.83-2.51 2.35-.91 4.53-1.99 6.54-3.23s3.93-2.71 5.75-4.38c1.82-1.67 3.74-3.61 5.75-5.82 2.01-2.2 3.76-4.72 5.25-7.54 1.48-2.82 2.73-5.77 3.74-8.84a64.92 64.92 0 0 0 2.3-9.13c.53-3.02.88-5.87 1.08-8.55 1.63-.57 2.44-1.72 2.44-3.45l-.29-1.58c-.38-.57-.38-1.24 0-2.01.57-1.82 1.92-3.21 4.02-4.17 1.53.96 2.9 2.01 4.1 3.16 1.2 1.15 2.32 2.3 3.38 3.45zm47.28 44.12c-.67.57-1.25 1.27-1.72 2.08-.48.82-.96 1.65-1.44 2.51-.48 1.06-1.01 2.06-1.58 3.02-.57.96-1.29 1.82-2.16 2.59-.48 1.44-.96 2.56-1.44 3.38-.48.82-1.25 1.75-2.3 2.8-.96 3.83-3.21 8-6.75 12.5-.1.86-.36 1.7-.79 2.51-.43.82-.89 1.61-1.36 2.37-.19.29-.38.6-.57.93-.19.34-.34.6-.43.79l-.29 1.44c-.48.77-1.01 1.44-1.58 2.01l-1.58 1.58c-.19.29-.53.67-1.01 1.15l-2.16.86c-6.99-.96-11.26-4.69-12.79-11.21l.14-1.44c.19-.48.36-.98.5-1.51s.31-1.08.5-1.65c.38-1.34.84-2.68 1.36-4.02a10.5 10.5 0 0 1 2.37-3.59c.19-.67.62-1.75 1.29-3.23s1.82-3.71 3.45-6.68c1.34-2.3 2.39-4.12 3.16-5.46.77-1.34 1.39-2.39 1.87-3.16-.96-1.53-2.11-2.92-3.45-4.17a83.5 83.5 0 0 1-3.23-6.9c-.91-2.2-1.61-4.17-2.08-5.89-.1-1.24-.24-2.3-.43-3.16-.19-.86-.38-1.77-.57-2.73-.29-1.05-.53-2.11-.72-3.16-.19-1.05-.29-2.16-.29-3.31-.48-.67-.77-1.34-.86-2.01l.29-1.44c.29-.67.33-1.56.14-2.66s-.43-2.23-.72-3.38c-.19-.96-.41-2.01-.65-3.16-.24-1.15-.31-2.3-.22-3.45.09-1.15.41-2.23.93-3.23.53-1.01 1.41-1.89 2.66-2.66l2.44-.14c.86.48 1.7.93 2.51 1.36.81.43 1.6.89 2.37 1.37 1.05.48 2.06.96 3.02 1.44s1.96 1.1 3.02 1.87l1.01 2.01 1.87 1.58v1.58c.09.38.14.91.14 1.58 0 1.25.19 2.01.57 2.3l.57 1.72c0 1.34.14 2.61.43 3.81.29 1.2.57 2.32.86 3.38.29 1.06.57 2.16.86 3.31.29 1.15.33 2.4.14 3.74.57-.29 1.05-.62 1.44-1.01.19-.19.38-.33.57-.43.19-.09.38-.24.57-.43l8.48-11.5-.29-1.44 3.02-2.87c.77-.77 1.51-1.48 2.23-2.16.72-.67 1.32-1.39 1.8-2.16l1.58-1.15c3.06-4.79 7.42-7.76 13.08-8.91l2.01-.29.57 1.87c.38 1.06 1.17 2.01 2.37 2.87 1.2.86 2.47 1.68 3.81 2.44l1.29.86c.48.96.72 1.68.72 2.16s-.05.91-.14 1.29l.57 1.44c-.77 2.3-1.7 3.98-2.8 5.03-1.1 1.06-2.18 2.01-3.23 2.87-.86.77-1.65 1.46-2.37 2.08-.72.62-1.27 1.41-1.65 2.37l-1.01 1.15c-2.01 1.15-3.31 2.68-3.88 4.6l-.43 1.72h-1.72c-.1 0-.31.17-.65.5s-.84 1.17-1.51 2.52c-.67.96-1.15 1.58-1.44 1.87l-.72.72c-.1.38-.22.74-.36 1.08-.14.34-.31.74-.5 1.22-1.25 1.25-2.01 2.18-2.3 2.8-.29.62-.62 1.32-1.01 2.08-.38.77-.74 1.51-1.08 2.23-.34.72-.89 1.46-1.65 2.23l-.72 2.16zm26.27-27.02c.67-2.01 1.75-3.74 3.23-5.17 1.48-1.44 3.11-2.66 4.89-3.66 1.77-1.01 3.62-1.84 5.53-2.51 1.92-.67 3.74-1.24 5.46-1.72 3.83-1.63 7.93-3.18 12.29-4.67 4.36-1.48 8.81-2.8 13.36-3.95a80.24 80.24 0 0 1 14.01-2.23c4.79-.33 9.82.26 15.09 1.8.29.96.72 1.87 1.29 2.73.57.86 1.17 1.72 1.8 2.59.62.86 1.17 1.7 1.65 2.52.48.82.77 1.65.86 2.51.96.86 1.72 1.8 2.3 2.8.57 1.01.67 2.32.29 3.95-.96.77-1.89 1.46-2.8 2.08-.91.62-1.89 1.17-2.95 1.65-3.55-.86-7.14-1.15-10.78-.86-3.64.29-6.9.53-9.77.72-.86-.86-1.89-1.29-3.09-1.29s-2.44.19-3.74.57c-1.29.38-2.59.77-3.88 1.15-1.29.38-2.52.48-3.66.29-.96.77-2.13 1.27-3.52 1.51-1.39.24-2.9.46-4.53.65-.1.48 0 .79.29.93s.33.46.14.93c.57.67 1.32 1.15 2.23 1.44.91.29 1.87.57 2.87.86 1.01.29 1.89.65 2.66 1.08.77.43 1.29 1.13 1.58 2.08 1.44 0 2.68.34 3.74 1.01 1.05.67 1.92 1.49 2.59 2.44.67.96 1.17 1.99 1.51 3.09.33 1.1.5 2.08.5 2.95.29.77.62 1.1 1.01 1.01.38-.09.81.1 1.29.57.29 1.25 1.01 2.51 2.16 3.81 1.15 1.29 2.06 2.71 2.73 4.24.19 2.4.33 4.53.43 6.39.09 1.87-.24 3.76-1.01 5.68a31.49 31.49 0 0 1-5.96 9.48 47.608 47.608 0 0 1-8.62 7.4c-3.21 2.16-6.63 4-10.27 5.53-3.64 1.53-7.18 2.82-10.63 3.88-.38-.1-.77-.1-1.15 0-.38.09-.48-.14-.29-.72-.77.67-1.61 1.1-2.51 1.29-.91.19-1.89.26-2.95.22-1.06-.05-2.13-.12-3.23-.22s-2.13-.05-3.09.14c-.67-.67-1.27-1.32-1.8-1.94-.53-.62-.93-1.41-1.22-2.37-.48 0-.7-.24-.65-.72.05-.48-.12-.72-.5-.72.57-.96.84-1.51.79-1.65-.05-.14-.19-.26-.43-.36a2.72 2.72 0 0 1-.65-.36c-.19-.14-.24-.36-.14-.65.38-.77.53-1.65.43-2.66-.1-1.01-.19-2.03-.29-3.09-.1-1.05-.02-2.06.22-3.02s.93-1.72 2.08-2.3c3.26.38 6.35.26 9.27-.36s5.68-1.51 8.26-2.66 5.05-2.39 7.4-3.74a87.24 87.24 0 0 1 6.97-3.59c.29-.86.69-1.58 1.22-2.16.53-.57 1.08-1.1 1.65-1.58a13.1 13.1 0 0 0 1.58-1.58c.48-.57.81-1.29 1.01-2.16.09-.67-.07-1.08-.5-1.22-.43-.14-.65-.5-.65-1.08l-1.58-.43c-1.82-1.05-3.88-1.94-6.18-2.66s-4.26-1.51-5.89-2.37c-1.06.57-2.04.72-2.95.43-.91-.29-2.08-.57-3.52-.86a95.13 95.13 0 0 1-9.41-1.01c-3.02-.48-5.92-1.34-8.69-2.59a5.37 5.37 0 0 0-.72-1.29c-.29-.38-.82-.48-1.58-.29-.57-.77-1.15-1.51-1.72-2.23s-1.1-1.51-1.58-2.37c.19-1.15.33-2.13.43-2.95.09-.81-.19-1.6-.86-2.37.38-1.24.67-2.25.86-3.02.19-.77.19-1.77 0-3.02zm100.5 47.57c.19.77.33 1.49.43 2.16.09.67.19 1.39.29 2.16-.57 2.01-1.2 3.83-1.87 5.46-.29.67-.48 1.1-.57 1.29-.1.19-.14.34-.14.43s.05.22.14.36c.09.14.14.55.14 1.22l-.72 1.72c-.48.67-1.03 1.2-1.65 1.58-.62.38-1.27.72-1.94 1.01-.29.19-.6.36-.93.5-.34.14-.6.31-.79.5l-.43 1.72-2.01.29c-1.53.38-2.92.57-4.17.57h-1.58a96.351 96.351 0 0 0-2.73-2.44c-.67-.57-1.44-1.1-2.3-1.58-1.06-1.82-1.68-3.4-1.87-4.74-.19-1.24-.43-2.06-.72-2.44l-2.01-2.01 1.72-1.29-1.72-2.73c1.15-.86 2.01-1.48 2.59-1.87.57-.38 1.08-.79 1.51-1.22.43-.43.88-.98 1.36-1.65.48-.67 1.24-1.77 2.3-3.31l1.29-1.87 1.72 1.01c.48.29 1.37.55 2.66.79s2.42.46 3.38.65c1.53.48 3.04.84 4.53 1.08 1.48.24 2.66.74 3.52 1.51l.57 1.15zm14.23-81.76c0 .86-.12 1.92-.36 3.16-.24 1.25-.46 2.49-.65 3.74s-.24 2.37-.14 3.38c.09 1.01.53 1.65 1.29 1.94-1.72 5.08-2.9 9.34-3.52 12.79-.62 3.45-1.15 6.73-1.58 9.84-.43 3.11-.98 6.39-1.65 9.84-.67 3.45-1.87 7.67-3.59 12.65-1.06 3.07-2.35 5.2-3.88 6.39-1.53 1.2-3.16 1.8-4.89 1.8s-3.5-.48-5.32-1.44c-1.82-.96-3.5-2.01-5.03-3.16-.29-1.82-.31-4.05-.07-6.68s.55-5.39.93-8.26.77-5.63 1.15-8.26c.38-2.63.67-4.86.86-6.68.96-1.05 1.63-1.92 2.01-2.59.38-.67.65-1.39.79-2.16.14-.77.26-1.72.36-2.87.09-1.15.33-2.78.72-4.89.19-1.05.12-1.99-.22-2.8-.34-.81-.41-1.6-.22-2.37.19-.38.5-.67.93-.86.43-.19.69-.53.79-1.01.38-1.24.48-2.23.29-2.95-.19-.72-.05-1.6.43-2.66.48-.77 1.08-1.99 1.8-3.66.72-1.67.98-3.42.79-5.24.86-.67 1.67-1.44 2.44-2.3.77-.86 1.56-1.65 2.37-2.37.81-.72 1.72-1.32 2.73-1.8s2.23-.72 3.66-.72c.77 1.06 1.34 2.06 1.72 3.02l1.08 2.73c.33.86.79 1.68 1.37 2.44.57.77 1.44 1.44 2.59 2.01zm193.81-159.15c6.06 3.22 9.1 8.75 9.1 16.58 0 5.69-2.24 12.89-6.73 21.6-4.99 9.73-10.08 14.59-15.25 14.59-1.01 0-2.13-.49-3.36-1.47s-2.45-1.94-3.65-2.89v16.11c0 .82.16 1.77.47 2.84.44 1.52.73 2.56.85 3.13.13.57-.11 1.59-.71 3.08-.6 1.48-1.47 2.29-2.61 2.42-1.14.13-3.6-.66-7.39-2.37-3.98-1.77-6.44-3.35-7.39-4.74-.57-.88-.57-2.21 0-3.98.44-1.33.66-2.37.66-3.13v-58.56c0-.38-.22-1.07-.66-2.08-.44-1.01-.63-1.74-.57-2.18.38-3.03 1.52-4.55 3.41-4.55.32 0 1.59.36 3.84 1.09 2.24.73 4.03 1.12 5.35 1.18 1.89.06 4.31-.44 7.25-1.52 2.94-1.07 5.07-1.61 6.4-1.61.76 0 1.52.09 2.27.28 1.45.38 2.97 1.33 4.55 2.84 1.89 1.77 3.28 2.88 4.17 3.32zm-7.86 7.3c-1.45 0-3.47.79-6.06 2.37-2.59 1.58-4.58 3.32-5.97 5.21v22.83c3.41-1.07 6.63-4.96 9.66-11.65 2.78-6.06 4.17-11.21 4.17-15.44 0-2.21-.6-3.32-1.8-3.32zm39.8-8.63c0 .44-.14 1.04-.43 1.8-.28.76-.46 1.23-.52 1.42-.38 1.26-.76 3.22-1.14 5.87v58.18c0 .76.19 1.44.57 2.04.38.6.57 1.09.57 1.47 0 4.04-.76 6.22-2.27 6.54-.57.13-2.57-.3-6.02-1.28-3.44-.98-5.51-1.75-6.21-2.32-1.39-1.2-2.08-2.3-2.08-3.32 0-.25.12-.54.38-.85.25-.32.38-.85.38-1.61v-66.8c0-.38-.11-.77-.33-1.18-.22-.41-.33-.81-.33-1.18.12-1.52 1.29-2.53 3.51-3.03.63-.13 1.96-.13 3.98 0 2.34.19 4.36.54 6.06 1.04 2.59.76 3.88 1.83 3.88 3.22zm44.05 57.13c.57.95-.66 3.76-3.7 8.43-3.29 4.99-6.51 8.37-9.66 10.14-.38.19-.95.28-1.71.28-2.46 0-5.69-.76-9.67-2.27-4.23-1.52-7.01-3.16-8.34-4.93-3.66-4.74-5.5-11.31-5.5-19.71 0-7.96 1.61-14.97 4.83-21.03 3.47-6.63 7.9-10.01 13.26-10.14 1.96-.06 4.33.44 7.11 1.52 3.41 1.33 6.22 3.13 8.43 5.4.57.57 1.1 2.27 1.61 5.12.63 3.03.95 6 .95 8.91 0 4.3-.7 7.27-2.08 8.91a74.487 74.487 0 0 1-19.9 3.51c-.13 3.1.25 6.35 1.14 9.76s1.8 5.15 2.75 5.21c1.26.06 2.78-.98 4.55-3.13 1.58-1.83 2.56-3.38 2.94-4.64.44-1.9 1.04-3.85 1.8-5.87 1.01-.13 3 .38 5.97 1.52 2.97 1.14 4.71 2.15 5.21 3.03zm-16.87-28.99c-1.08-.13-2.57 1.58-4.5 5.12-1.93 3.54-3.05 6.92-3.36 10.14 2.84-.13 5.12-.82 6.82-2.08 1.01-.76 1.52-3.92 1.52-9.48 0-2.34-.16-3.57-.47-3.7zm67.94 43.49c-.06.89-.44 1.64-1.14 2.27-.7.63-1.48.88-2.37.76-7.83-1.07-12.19-2.56-13.08-4.45-.13-.25-.19-.5-.19-.76 0-.32.14-.66.43-1.04.28-.38.46-.71.52-1 .06-.28.19-.55.38-.81.13-.5.16-1.61.09-3.32-.76.57-1.9 2.08-3.41 4.55-1.58 2.72-2.97 4.61-4.17 5.69-2.02 1.9-4.33 2.84-6.92 2.84-1.52 0-3-.6-4.45-1.8-.7-.57-1.93-1.8-3.7-3.7-3.03-3.41-4.67-5.27-4.93-5.59-1.33-1.77-1.99-3.44-1.99-5.02 0-.5.06-1.01.19-1.52 1.2-5.56 4.93-10.83 11.18-15.82 4.55-3.6 10.99-7.42 19.33-11.46 0-2.02-.51-3.32-1.52-3.88-.63-.38-2.84.33-6.63 2.13s-6.44 3.33-7.96 4.6c-.51.51-1.33 1.2-2.46 2.08-1.07.63-2.05.82-2.94.57-.7-.19-2.18-1.33-4.45-3.41s-3.51-3.47-3.7-4.17c-.51-1.71.03-3.03 1.61-3.98.06-.06 1.33-.44 3.79-1.14 2.34-1.26 4.67-2.53 7.01-3.79 4.93-2.34 9.1-3.6 12.51-3.79 1.45-.06 3.09.7 4.93 2.27 1.64 1.45 3.3 2.89 4.97 4.31 1.67 1.42 3.39 2.79 5.16 4.12 2.02 1.77 3.03 3.47 3.03 5.12v35.82c.63 1.64.91 2.75.85 3.32zm-15.16-27.67c-3.1 1.2-5.75 3.03-7.96 5.5-1.64 2.02-3.29 4.01-4.93 5.97-1.33 1.33-2.58 3.05-3.74 5.16-1.17 2.12-1.75 3.68-1.75 4.69 0 .51.19.76.57.76 1.33 0 4.29-2.86 8.91-8.57 4.61-5.72 7.58-10.22 8.91-13.5zm56.47 20.37c0 3.47-1.15 6.25-3.46 8.34-2.31 2.08-5.54 3.16-9.71 3.22-1.01 0-2.12-.16-3.32-.47-2.15-.57-3.29-.89-3.41-.95-1.14-.25-2.29-.52-3.46-.81-1.17-.28-2.16-.77-2.98-1.47-1.39-1.26-2.75-3-4.07-5.21-1.08-1.77-2.12-3.57-3.13-5.4-1.01-1.83-1.52-2.94-1.52-3.32 0-.88.63-1.55 1.9-1.99.32-.13.88-.19 1.71-.19 1.9 0 4.28.21 7.15.62 2.87.41 4.44.76 4.69 1.04s.6 2.1 1.04 5.45c.38 2.91 1.04 4.36 1.99 4.36 1.45 0 2.18-1.96 2.18-5.87 0-4.99-1.33-8.12-3.98-9.38-6.06-2.84-10.04-5.37-11.94-7.58-2.34-2.72-3.51-6.82-3.51-12.32 0-3.6.95-7 2.84-10.19 1.89-3.19 4.14-5.1 6.73-5.73 1.14-.25 4.8.95 10.99 3.6.57.19 2.24.54 5.02 1.04 1.96.38 3.35 1.04 4.17 1.99 1.2 1.45 1.9 3.76 2.08 6.92.06 2.34.09 4.68.09 7.01.44 2.15.66 3.41.66 3.79 0 1.77-.85 2.78-2.56 3.03-.88.13-2.62-.22-5.21-1.04-2.84-.95-4.64-1.93-5.4-2.94-.19-.25-.38-2.62-.57-7.11-.19-4.23-.63-6.35-1.33-6.35-.95 0-1.83 1.23-2.65 3.7a24.11 24.11 0 0 0-1.23 7.67c0 3.35.73 5.46 2.18 6.35 3.09 1.71 6.17 3.43 9.24 5.16 3.06 1.74 5.19 3.52 6.4 5.35 1.58 2.4 2.37 5.62 2.37 9.66zm44.53-7.2c.57.95-.66 3.76-3.7 8.43-3.29 4.99-6.51 8.37-9.66 10.14-.38.19-.95.28-1.71.28-2.46 0-5.69-.76-9.67-2.27-4.23-1.52-7.01-3.16-8.34-4.93-3.66-4.74-5.5-11.31-5.5-19.71 0-7.96 1.61-14.97 4.83-21.03 3.47-6.63 7.9-10.01 13.26-10.14 1.96-.06 4.33.44 7.11 1.52 3.41 1.33 6.22 3.13 8.43 5.4.57.57 1.1 2.27 1.61 5.12.63 3.03.95 6 .95 8.91 0 4.3-.7 7.27-2.08 8.91a74.487 74.487 0 0 1-19.9 3.51c-.13 3.1.25 6.35 1.14 9.76s1.8 5.15 2.75 5.21c1.26.06 2.78-.98 4.55-3.13 1.58-1.83 2.56-3.38 2.94-4.64.44-1.9 1.04-3.85 1.8-5.87 1.01-.13 3 .38 5.97 1.52 2.97 1.14 4.71 2.15 5.21 3.03zm-16.87-28.99c-1.08-.13-2.57 1.58-4.5 5.12-1.93 3.54-3.05 6.92-3.36 10.14 2.84-.13 5.12-.82 6.82-2.08 1.01-.76 1.52-3.92 1.52-9.48 0-2.34-.16-3.57-.47-3.7zM789.63 300.37c0 3.47-1.15 6.25-3.46 8.34-2.31 2.08-5.54 3.16-9.71 3.22-1.01 0-2.12-.16-3.32-.47-2.15-.57-3.29-.89-3.41-.95-1.14-.25-2.29-.52-3.46-.81-1.17-.28-2.16-.77-2.98-1.47-1.39-1.26-2.75-3-4.07-5.21-1.08-1.77-2.12-3.57-3.13-5.4-1.01-1.83-1.52-2.94-1.52-3.32 0-.88.63-1.55 1.9-1.99.32-.13.88-.19 1.71-.19 1.9 0 4.28.21 7.15.62 2.87.41 4.44.76 4.69 1.04s.6 2.1 1.04 5.45c.38 2.91 1.04 4.36 1.99 4.36 1.45 0 2.18-1.96 2.18-5.87 0-4.99-1.33-8.12-3.98-9.38-6.06-2.84-10.04-5.37-11.94-7.58-2.34-2.72-3.51-6.82-3.51-12.32 0-3.6.95-7 2.84-10.19 1.89-3.19 4.14-5.1 6.73-5.73 1.14-.25 4.8.95 10.99 3.6.57.19 2.24.54 5.02 1.04 1.96.38 3.35 1.04 4.17 1.99 1.2 1.45 1.9 3.76 2.08 6.92.06 2.34.09 4.68.09 7.01.44 2.15.66 3.41.66 3.79 0 1.77-.85 2.78-2.56 3.03-.88.13-2.62-.22-5.21-1.04-2.84-.95-4.64-1.93-5.4-2.94-.19-.25-.38-2.62-.57-7.11-.19-4.23-.63-6.35-1.33-6.35-.95 0-1.83 1.23-2.65 3.7a24.11 24.11 0 0 0-1.23 7.67c0 3.35.73 5.46 2.18 6.35 3.09 1.71 6.17 3.43 9.24 5.16 3.06 1.74 5.19 3.52 6.4 5.35 1.58 2.4 2.37 5.62 2.37 9.66zm37.43-37.05a5.188 5.188 0 0 1-1.14 3.03c-.7.89-1.45 1.33-2.27 1.33-.25 0-.47-.03-.66-.09-.88-.32-2.88-.47-5.97-.47v37.43c0-.06.2.44.62 1.52.41 1.08.62 2.02.62 2.84 0 1.83-1.26 2.81-3.79 2.94-1.33.06-3.76-.51-7.3-1.71-3.85-1.26-5.91-2.43-6.16-3.51-.13-.44.09-1.37.66-2.8.57-1.42.85-2.51.85-3.27v-33.54h-3.22c-1.2 0-2.69-1.06-4.45-3.17-1.77-2.12-2.65-3.8-2.65-5.07 0-.95.36-1.8 1.09-2.56.73-.76 1.53-1.14 2.42-1.14h6.82v-8.53c-.95-1.26-1.42-2.62-1.42-4.07 0-1.33.57-2.15 1.71-2.46.57-.13 1.36-.19 2.37-.19 2.34 0 5.07.36 8.2 1.09 3.13.73 5.16 1.47 6.11 2.23.44.38.66.82.66 1.33 0 .63-.51 1.58-1.52 2.84-1.01 1.26-1.55 2.15-1.61 2.65v5.12h3.03c.63 0 1.96 1.14 3.98 3.41 2.02 2.27 3.03 3.88 3.03 4.83zm34.11-7.86c3.47 1.64 6.16 4.96 8.05 9.95 1.71 4.55 2.56 9.92 2.56 16.11 0 8.53-1.45 15.92-4.36 22.17-3.22 6.69-7.23 9.73-12.03 9.1-1.77-.44-4.42-.98-7.96-1.61-2.59-.32-4.93-.79-7.01-1.42-3.6-.95-6.48-4.01-8.62-9.19-1.96-4.8-2.94-10.42-2.94-16.87s1.01-12.41 3.03-17.72c2.27-5.81 5.46-9.89 9.57-12.22.69-.38 1.64-.57 2.84-.57 1.26 0 3.76.41 7.49 1.23 2.4 0 5.53.35 9.38 1.04zm-10.61 8.53c-1.71 0-3.29 2.07-4.74 6.21-1.45 4.14-2.18 8.1-2.18 11.89 0 4.55.54 9.03 1.61 13.45 1.2 4.8 2.59 7.39 4.17 7.77 2.02.44 3.82-1.83 5.4-6.82 1.52-4.8 2.27-10.11 2.27-15.92 0-3.22-.41-6.41-1.23-9.57-1.14-4.67-2.91-7.01-5.31-7.01zm53.72 46.99c-.63.32-1.23.47-1.8.47-1.64 0-4.39-1.93-8.24-5.78v18.29c.06.5.35 1.4.85 2.7.5 1.29.76 2.26.76 2.89 0 1.33-.88 1.99-2.65 1.99-1.58 0-3.88-.44-6.92-1.33-1.83-.57-3.66-1.17-5.5-1.8-1.58-.44-2.5-1.42-2.75-2.94-.13-.63.11-1.86.71-3.7.6-1.83.9-2.88.9-3.13v-61.68c0-2.08-.16-3.41-.47-3.98-.95-1.58-1.23-2.68-.85-3.32.25-.5 1.07-.76 2.46-.76s3.63.28 6.54.85c3.35.7 5.15 1.04 5.4 1.04 1.07.13 1.89.89 2.46 2.27.06.19.09.63.09 1.33 0 2.59-.38 6.44-1.14 11.56 1.52-3.03 3.03-6.03 4.55-9 2.02-3.85 3.88-5.62 5.59-5.31 12.38 2.59 18.57 10.3 18.57 23.12 0 7.27-1.94 14.58-5.83 21.94-3.88 7.36-8.13 12.11-12.74 14.26zm-2.08-44.06c-2.27-.25-4.83 11.15-7.67 34.21 3.54-1.58 6.74-5.05 9.62-10.42 2.87-5.37 4.31-10.36 4.31-14.97 0-5.37-2.08-8.31-6.25-8.81zm90.39 40.75c-.06.89-.44 1.64-1.14 2.27-.7.63-1.48.88-2.37.76-7.83-1.07-12.19-2.56-13.08-4.45-.13-.25-.19-.5-.19-.76 0-.32.14-.66.43-1.04.28-.38.46-.71.52-1 .06-.28.19-.55.38-.81.13-.5.16-1.61.09-3.32-.76.57-1.9 2.08-3.41 4.55-1.58 2.72-2.97 4.61-4.17 5.69-2.02 1.9-4.33 2.84-6.92 2.84-1.52 0-3-.6-4.45-1.8-.7-.57-1.93-1.8-3.7-3.7-3.03-3.41-4.67-5.27-4.93-5.59-1.33-1.77-1.99-3.44-1.99-5.02 0-.5.06-1.01.19-1.52 1.2-5.56 4.93-10.83 11.18-15.82 4.55-3.6 10.99-7.42 19.33-11.46 0-2.02-.51-3.32-1.52-3.88-.63-.38-2.84.33-6.63 2.13s-6.44 3.33-7.96 4.6c-.51.51-1.33 1.2-2.46 2.08-1.07.63-2.05.82-2.94.57-.7-.19-2.18-1.33-4.45-3.41s-3.51-3.47-3.7-4.17c-.51-1.71.03-3.03 1.61-3.98.06-.06 1.33-.44 3.79-1.14 2.34-1.26 4.67-2.53 7.01-3.79 4.93-2.34 9.1-3.6 12.51-3.79 1.45-.06 3.09.7 4.93 2.27 1.64 1.45 3.3 2.89 4.97 4.31 1.67 1.42 3.39 2.79 5.16 4.12 2.02 1.77 3.03 3.47 3.03 5.12v35.82c.63 1.64.91 2.75.85 3.32zM977.43 280c-3.1 1.2-5.75 3.03-7.96 5.5-1.64 2.02-3.29 4.01-4.93 5.97-1.33 1.33-2.58 3.05-3.74 5.16-1.17 2.12-1.75 3.68-1.75 4.69 0 .51.19.76.57.76 1.33 0 4.29-2.86 8.91-8.57 4.61-5.72 7.58-10.22 8.91-13.5zm66.51 23.69c.5 1.2.76 2.4.76 3.6 0 1.9-.73 3.19-2.18 3.88-.44.19-1.23.28-2.37.28-2.15 0-4.71-.33-7.67-.99-2.97-.66-4.77-1.31-5.4-1.94-.32-.38-.47-.79-.47-1.23 0-.69.47-1.81 1.42-3.36.95-1.55 1.42-2.67 1.42-3.36.13-24.89-.06-37.43-.57-37.62-.89-.31-3.07 2.53-6.54 8.53-3.66 6.32-5.5 11.09-5.5 14.31v17.72c.82.82 1.23 1.83 1.23 3.03 0 2.4-1.08 4.04-3.22 4.93-.25.13-.63.19-1.14.19-1.71 0-4.2-.4-7.49-1.18-3.29-.79-5.12-1.44-5.5-1.94-.38-.5-.57-1.07-.57-1.71s.36-1.39 1.09-2.27c.73-.88 1.09-1.45 1.09-1.71v-44.06c0-.5-.25-1.17-.76-1.99-.51-.82-.66-1.52-.47-2.08.38-1.33 1.36-2.18 2.94-2.56 1.01-.25 3.38.09 7.11 1.04 4.04 1.01 6.25 2.05 6.63 3.13.25.7.16 1.74-.28 3.13-.7 2.21-1.04 3.47-1.04 3.79 0 .7.13 1.45.38 2.27.95-3.16 2.27-5.97 3.98-8.43 2.08-2.97 4.17-4.45 6.25-4.45s4.93.74 8.34 2.23c3.41 1.48 5.37 2.83 5.88 4.03 1.77 4.04 2.65 18.98 2.65 44.82zm52.11-66.8c.13.63-.11 1.86-.71 3.7-.6 1.83-.9 2.88-.9 3.13v61.78c0 2.08.16 3.38.47 3.88.95 1.64 1.23 2.75.85 3.32-.32.5-1.14.76-2.46.76-1.45 0-3.66-.28-6.63-.85-3.35-.7-5.12-1.04-5.31-1.04-1.14-.13-1.96-.89-2.46-2.27-.06-.13-.09-.54-.09-1.23 0-2.59.35-6.44 1.04-11.56-1.52 3.03-3 6.06-4.45 9.1-2.08 3.73-3.95 5.43-5.59 5.12-12.44-2.53-18.67-10.17-18.67-22.93 0-7.26 1.99-14.65 5.97-22.17 3.85-7.26 8.08-12 12.7-14.21.63-.31 1.23-.47 1.8-.47 1.58 0 4.33 1.96 8.24 5.87v-18.38c-.06-.5-.35-1.41-.85-2.7-.51-1.29-.76-2.26-.76-2.89 0-1.33.88-1.99 2.65-1.99 1.58 0 3.85.44 6.82 1.33 1.89.63 3.76 1.23 5.59 1.8 1.58.44 2.5 1.42 2.75 2.94zm-16.49 24.45c-3.54 1.58-6.74 5.05-9.62 10.42-2.88 5.37-4.31 10.36-4.31 14.97 0 5.37 2.08 8.31 6.25 8.81 2.21.25 4.77-11.15 7.67-34.2zM830.19 367.82c.25 1.01-.09 1.83-1.04 2.46-.76.38-1.48.79-2.18 1.23-3.98 6.06-9.38 14.25-16.2 24.54 0 10.04.03 15.22.09 15.54.06.32.3 1.12.71 2.42.41 1.3.62 2.32.62 3.08 0 1.2-.54 2.02-1.61 2.46-.7.32-1.64.47-2.84.47-2.4 0-5.05-.54-7.96-1.61-3.66-1.26-5.5-2.87-5.5-4.83 0-.57.25-1.48.76-2.75.5-1.26.76-2.31.76-3.13v-37.52c-.7-3.54-1.04-5.37-1.04-5.5 0-1.96.88-3.19 2.65-3.7.76-.19 1.67-.28 2.75-.28 2.21 0 4.53.36 6.96 1.09 2.43.73 3.87 1.5 4.31 2.32.13.25.19.57.19.95 0 .32-.44 1.83-1.33 4.55v4.55c1.52-2.72 3-5.43 4.45-8.15 1.96-3.41 3.41-5.21 4.36-5.4 1.39-.25 3.51.57 6.35 2.46 2.84 1.9 4.42 3.47 4.74 4.74zm40.08 33.64c.57.95-.66 3.76-3.7 8.43-3.29 4.99-6.51 8.37-9.66 10.14-.38.19-.95.28-1.71.28-2.46 0-5.69-.76-9.67-2.27-4.23-1.52-7.01-3.16-8.34-4.93-3.66-4.74-5.5-11.31-5.5-19.71 0-7.96 1.61-14.97 4.83-21.03 3.47-6.63 7.9-10.01 13.26-10.14 1.96-.06 4.33.44 7.11 1.52 3.41 1.33 6.22 3.13 8.43 5.4.57.57 1.1 2.27 1.61 5.12.63 3.03.95 6 .95 8.91 0 4.3-.7 7.27-2.08 8.91a74.487 74.487 0 0 1-19.9 3.51c-.13 3.1.25 6.35 1.14 9.76s1.8 5.15 2.75 5.21c1.26.06 2.78-.98 4.55-3.13 1.58-1.83 2.56-3.38 2.94-4.64.44-1.9 1.04-3.85 1.8-5.87 1.01-.13 3 .38 5.97 1.52 2.97 1.14 4.71 2.15 5.21 3.03zm-16.87-28.99c-1.08-.13-2.57 1.58-4.5 5.12-1.93 3.54-3.05 6.92-3.36 10.14 2.84-.13 5.12-.82 6.82-2.08 1.01-.76 1.52-3.92 1.52-9.48 0-2.34-.16-3.57-.47-3.7zm53.44-25.59c.13.95-.16 2.02-.85 3.22-.7 1.2-1.42 1.77-2.18 1.71-.44 0-1.04-.33-1.8-.99s-1.42-1.03-1.99-1.09c-2.91-.5-4.36 2.18-4.36 8.05v2.94c.06 1.26.09 2.15.09 2.65h3.03c.69 0 2.05 1.14 4.07 3.41 2.02 2.27 3 3.88 2.94 4.83a5.188 5.188 0 0 1-1.14 3.03c-.7.89-1.45 1.33-2.27 1.33-.25 0-.47-.03-.66-.09-.82-.32-2.81-.47-5.97-.47v37.43c0 .51.27 1.15.81 1.94s.74 1.47.62 2.04c-.38 2.08-1.71 3.19-3.98 3.32-1.26.06-3.7-.51-7.3-1.71-3.85-1.26-5.91-2.43-6.16-3.51-.13-.44.09-1.37.66-2.8.57-1.42.85-2.51.85-3.27v-33.54h-3.22c-1.2 0-2.67-1.06-4.41-3.17-1.74-2.12-2.61-3.8-2.61-5.07 0-.95.35-1.8 1.04-2.56.69-.76 1.48-1.14 2.37-1.14h6.82c0-6.95.41-11.78 1.23-14.5 1.89-5.94 5.97-8.91 12.22-8.91.82 0 1.64.03 2.46.09 2.02.25 4.17 1.3 6.44 3.13 2.02 1.58 3.09 2.81 3.22 3.7zm23.69-2.56c0 .44-.14 1.04-.43 1.8-.28.76-.46 1.23-.52 1.42-.38 1.26-.76 3.22-1.14 5.87v58.18c0 .76.19 1.44.57 2.04.38.6.57 1.09.57 1.47 0 4.04-.76 6.22-2.27 6.54-.57.13-2.57-.3-6.02-1.28-3.44-.98-5.51-1.75-6.21-2.32-1.39-1.2-2.08-2.3-2.08-3.32 0-.25.12-.54.38-.85.25-.32.38-.85.38-1.61v-66.8c0-.38-.11-.77-.33-1.18-.22-.41-.33-.81-.33-1.18.12-1.52 1.29-2.53 3.51-3.03.63-.13 1.96-.13 3.98 0 2.34.19 4.36.54 6.06 1.04 2.59.76 3.88 1.83 3.88 3.22zm44.05 57.14c.57.95-.66 3.76-3.7 8.43-3.29 4.99-6.51 8.37-9.66 10.14-.38.19-.95.28-1.71.28-2.46 0-5.69-.76-9.67-2.27-4.23-1.52-7.01-3.16-8.34-4.93-3.66-4.74-5.5-11.31-5.5-19.71 0-7.96 1.61-14.97 4.83-21.03 3.47-6.63 7.9-10.01 13.26-10.14 1.96-.06 4.33.44 7.11 1.52 3.41 1.33 6.22 3.13 8.43 5.4.57.57 1.1 2.27 1.61 5.12.63 3.03.95 6 .95 8.91 0 4.3-.7 7.27-2.08 8.91a74.487 74.487 0 0 1-19.9 3.51c-.13 3.1.25 6.35 1.14 9.76s1.8 5.15 2.75 5.21c1.26.06 2.78-.98 4.55-3.13 1.58-1.83 2.56-3.38 2.94-4.64.44-1.9 1.04-3.85 1.8-5.87 1.01-.13 3 .38 5.97 1.52 2.97 1.14 4.71 2.15 5.21 3.03zm-16.87-28.99c-1.08-.13-2.57 1.58-4.5 5.12-1.93 3.54-3.05 6.92-3.36 10.14 2.84-.13 5.12-.82 6.82-2.08 1.01-.76 1.52-3.92 1.52-9.48 0-2.34-.16-3.57-.47-3.7zm64.06 27.09c0 1.2-1.04 2.81-3.13 4.83-1.71 3.73-3.22 6.41-4.55 8.05-2.91 3.79-6.48 6.03-10.71 6.73-.89.13-1.74.19-2.56.19-3.54 0-7.9-1.71-13.08-5.12-4.49-3.03-6.73-10.01-6.73-20.94 0-8.08 1.23-15.41 3.7-21.98 2.72-7.14 6.03-10.83 9.95-11.09 3.09-.19 6.88.63 11.37 2.46 4.48 1.83 7.52 3.85 9.1 6.06 1.33 1.83 1.99 4.26 1.99 7.3 0 .82-.06 2.01-.19 3.55-.13 1.55-.16 2.64-.09 3.27.13 1.71.19 2.5.19 2.37 0 2.02-.98 3-2.94 2.94-2.27-.06-4.42-.41-6.44-1.04-2.72-.95-4.36-2.24-4.93-3.88-.19-.57.08-1.33.81-2.27.72-.95 1.03-1.74.9-2.37.13-.44.19-1.55.19-3.32 0-3.79-.66-5.75-1.99-5.87-2.02-.13-3.73 2.94-5.12 9.19-1.26 5.56-1.9 11.62-1.9 18.19 0 7.77.92 11.88 2.75 12.32 1.45.32 3.35-1.26 5.68-4.74 1.96-2.97 3.02-4.97 3.17-6.02.16-1.04.3-2.1.43-3.17.44-1.77 1.58-2.59 3.41-2.46 1.14.13 3.13.85 5.97 2.18s4.34 2.32 4.5 2.98c.16.66.24 1.22.24 1.66zm36.19-27.95a5.188 5.188 0 0 1-1.14 3.03c-.7.89-1.45 1.33-2.27 1.33-.25 0-.47-.03-.66-.09-.88-.32-2.88-.47-5.97-.47v37.43c0-.06.2.44.62 1.52.41 1.08.62 2.02.62 2.84 0 1.83-1.26 2.81-3.79 2.94-1.33.06-3.76-.51-7.3-1.71-3.85-1.26-5.91-2.43-6.16-3.51-.13-.44.09-1.37.66-2.8.57-1.42.85-2.51.85-3.27v-33.54h-3.22c-1.2 0-2.69-1.06-4.45-3.17-1.77-2.12-2.65-3.8-2.65-5.07 0-.95.36-1.8 1.09-2.56.73-.76 1.53-1.14 2.42-1.14h6.82v-8.53c-.95-1.26-1.42-2.62-1.42-4.07 0-1.33.57-2.15 1.71-2.46.57-.13 1.36-.19 2.37-.19 2.34 0 5.07.36 8.2 1.09 3.13.73 5.16 1.47 6.11 2.23.44.38.66.82.66 1.33 0 .63-.51 1.58-1.52 2.84-1.01 1.26-1.55 2.15-1.61 2.65v5.12h3.03c.63 0 1.96 1.14 3.98 3.41 2.02 2.27 3.03 3.88 3.03 4.83z" fill="#231f20"/><ellipse cx="1059.92" cy="534.73" rx="44.46" ry="30.33" transform="rotate(-16.86 1060.058 534.783)" fill="#fff" stroke="#231f20" stroke-linecap="round" stroke-linejoin="round" stroke-width="12"/><ellipse cx="1106.32" cy="584.28" rx="27.67" ry="18.88" transform="rotate(-16.86 1106.465 584.345)" fill="#fff" stroke="#231f20" stroke-linecap="round" stroke-linejoin="round" stroke-width="10"/><ellipse cx="1147.35" cy="615.93" rx="19.15" ry="13.06" transform="rotate(-16.86 1147.496 615.975)" fill="#fff" stroke="#231f20" stroke-linecap="round" stroke-linejoin="round" stroke-width="9"/></svg>